<?xml version="1.0" encoding="UTF-8"?>
<!DOCTYPE svg PUBLIC "-//W3C//DTD SVG 1.1//EN" "http://www.w3.org/Graphics/SVG/1.1/DTD/svg11.dtd">
<svg xmlns="http://www.w3.org/2000/svg" xmlns:xlink="http://www.w3.org/1999/xlink">
  <symbol id="insta" viewBox="0 0 17 17" fill="none" xmlns="http://www.w3.org/2000/svg">
    <path fill-rule="evenodd" clip-rule="evenodd" d="M5.06578 1H11.6674C13.9094 1 15.7334 2.824 15.7333 5.06587V11.6675C15.7333 13.9093 13.9094 15.7333 11.6674 15.7333H5.06578C2.82391 15.7333 1 13.9094 1 11.6675V5.06587C1 2.824 2.82391 1 5.06578 1ZM8.36666 4.68333C6.33564 4.68333 4.68333 6.33568 4.68333 8.36675C4.68333 10.3977 6.33564 12.05 8.36666 12.05C10.3977 12.05 12.05 10.3977 12.05 8.36675C12.05 6.33568 10.3977 4.68333 8.36666 4.68333ZM8.36668 10.8222C7.01274 10.8222 5.91113 9.72074 5.91113 8.36675C5.91113 7.01268 7.01266 5.91111 8.36668 5.91111C9.72071 5.91111 10.8222 7.01268 10.8222 8.36675C10.8222 9.72074 9.72062 10.8222 8.36668 10.8222ZM14.4262 11.6675C14.4262 13.1886 13.1886 14.4261 11.6675 14.4261H5.06577C3.54469 14.4262 2.3072 13.1886 2.3072 11.6675V5.06587C2.3072 3.5448 3.54469 2.30721 5.06577 2.30721H11.6674C13.1885 2.30721 14.4261 3.5448 14.4261 5.06587V11.6675H14.4262Z" fill="currentColor"/>
    <path fill-rule="evenodd" clip-rule="evenodd" d="M5.06578 1H11.6674C13.9094 1 15.7334 2.824 15.7333 5.06587V11.6675C15.7333 13.9093 13.9094 15.7333 11.6674 15.7333H5.06578C2.82391 15.7333 1 13.9094 1 11.6675V5.06587C1 2.824 2.82391 1 5.06578 1ZM8.36666 4.68333C6.33564 4.68333 4.68333 6.33568 4.68333 8.36675C4.68333 10.3977 6.33564 12.05 8.36666 12.05C10.3977 12.05 12.05 10.3977 12.05 8.36675C12.05 6.33568 10.3977 4.68333 8.36666 4.68333ZM8.36668 10.8222C7.01274 10.8222 5.91113 9.72074 5.91113 8.36675C5.91113 7.01268 7.01266 5.91111 8.36668 5.91111C9.72071 5.91111 10.8222 7.01268 10.8222 8.36675C10.8222 9.72074 9.72062 10.8222 8.36668 10.8222ZM14.4262 11.6675C14.4262 13.1886 13.1886 14.4261 11.6675 14.4261H5.06577C3.54469 14.4262 2.3072 13.1886 2.3072 11.6675V5.06587C2.3072 3.5448 3.54469 2.30721 5.06577 2.30721H11.6674C13.1885 2.30721 14.4261 3.5448 14.4261 5.06587V11.6675H14.4262Z" fill="currentColor"/>
  </symbol>
  <symbol id="vk" viewBox="0 0 17 15" fill="none" xmlns="http://www.w3.org/2000/svg">
    <path fill-rule="evenodd" clip-rule="evenodd" d="M14.0457 9.765C14.5871 10.2839 15.1585 10.772 15.644 11.3432C15.8585 11.5971 16.0616 11.859 16.2169 12.1536C16.437 12.5723 16.2377 13.0331 15.8552 13.0581L13.4776 13.0571C12.8644 13.107 12.3752 12.8647 11.9639 12.4531C11.6347 12.1239 11.3299 11.7736 11.0134 11.4334C10.8836 11.2943 10.7478 11.1634 10.5855 11.06C10.261 10.8532 9.97924 10.9165 9.79376 11.2488C9.60486 11.5868 9.56202 11.9611 9.54346 12.3378C9.51799 12.8874 9.34876 13.0319 8.78639 13.057C7.58453 13.1127 6.4439 12.9342 5.3843 12.339C4.45012 11.8143 3.7257 11.0735 3.09517 10.2349C1.86752 8.60198 0.927381 6.80765 0.0824219 4.96304C-0.107772 4.54745 0.0313211 4.32437 0.498413 4.31647C1.27404 4.30168 2.04956 4.30273 2.8261 4.31542C3.14134 4.31994 3.35003 4.49745 3.47175 4.78981C3.89139 5.80275 4.40486 6.76648 5.04938 7.65978C5.22102 7.8976 5.39604 8.13543 5.64527 8.30283C5.92099 8.48817 6.13092 8.42674 6.26063 8.12522C6.34293 7.93403 6.37897 7.7281 6.39752 7.52334C6.45897 6.81886 6.46707 6.11559 6.35929 5.41359C6.29312 4.97547 6.04175 4.69184 5.59642 4.60894C5.36918 4.56667 5.40301 4.48365 5.51304 4.35632C5.70415 4.13671 5.88389 4 6.24218 4H8.92918C9.3522 4.08196 9.44614 4.26852 9.50405 4.68637L9.50636 7.61646C9.50174 7.77822 9.58866 8.25824 9.88546 8.36531C10.123 8.44153 10.2796 8.25498 10.4221 8.10711C11.0654 7.4368 11.5246 6.64462 11.9348 5.82434C12.1168 5.46365 12.2734 5.08906 12.4251 4.7148C12.5374 4.43707 12.7138 4.30042 13.0325 4.30647L15.6186 4.30873C15.6952 4.30873 15.7728 4.30984 15.8471 4.32231C16.2829 4.39522 16.4023 4.57925 16.2677 4.997C16.0556 5.65241 15.643 6.1986 15.2396 6.74732C14.8083 7.33315 14.347 7.89892 13.9194 8.48822C13.5264 9.02636 13.5576 9.29761 14.0457 9.765V9.765Z" fill="currentColor"/>
    <path fill-rule="evenodd" clip-rule="evenodd" d="M14.0457 9.765C14.5871 10.2839 15.1585 10.772 15.644 11.3432C15.8585 11.5971 16.0616 11.859 16.2169 12.1536C16.437 12.5723 16.2377 13.0331 15.8552 13.0581L13.4776 13.0571C12.8644 13.107 12.3752 12.8647 11.9639 12.4531C11.6347 12.1239 11.3299 11.7736 11.0134 11.4334C10.8836 11.2943 10.7478 11.1634 10.5855 11.06C10.261 10.8532 9.97924 10.9165 9.79376 11.2488C9.60486 11.5868 9.56202 11.9611 9.54346 12.3378C9.51799 12.8874 9.34876 13.0319 8.78639 13.057C7.58453 13.1127 6.4439 12.9342 5.3843 12.339C4.45012 11.8143 3.7257 11.0735 3.09517 10.2349C1.86752 8.60198 0.927381 6.80765 0.0824219 4.96304C-0.107772 4.54745 0.0313211 4.32437 0.498413 4.31647C1.27404 4.30168 2.04956 4.30273 2.8261 4.31542C3.14134 4.31994 3.35003 4.49745 3.47175 4.78981C3.89139 5.80275 4.40486 6.76648 5.04938 7.65978C5.22102 7.8976 5.39604 8.13543 5.64527 8.30283C5.92099 8.48817 6.13092 8.42674 6.26063 8.12522C6.34293 7.93403 6.37897 7.7281 6.39752 7.52334C6.45897 6.81886 6.46707 6.11559 6.35929 5.41359C6.29312 4.97547 6.04175 4.69184 5.59642 4.60894C5.36918 4.56667 5.40301 4.48365 5.51304 4.35632C5.70415 4.13671 5.88389 4 6.24218 4H8.92918C9.3522 4.08196 9.44614 4.26852 9.50405 4.68637L9.50636 7.61646C9.50174 7.77822 9.58866 8.25824 9.88546 8.36531C10.123 8.44153 10.2796 8.25498 10.4221 8.10711C11.0654 7.4368 11.5246 6.64462 11.9348 5.82434C12.1168 5.46365 12.2734 5.08906 12.4251 4.7148C12.5374 4.43707 12.7138 4.30042 13.0325 4.30647L15.6186 4.30873C15.6952 4.30873 15.7728 4.30984 15.8471 4.32231C16.2829 4.39522 16.4023 4.57925 16.2677 4.997C16.0556 5.65241 15.643 6.1986 15.2396 6.74732C14.8083 7.33315 14.347 7.89892 13.9194 8.48822C13.5264 9.02636 13.5576 9.29761 14.0457 9.765V9.765Z" fill="currentColor"/>
  </symbol>
  <symbol id="twitter" viewBox="0 0 17 15" fill="none" xmlns="http://www.w3.org/2000/svg">
    <path d="M14.0059 4.79536C14.6163 4.41036 15.0205 3.88487 15.2185 3.21656C14.6246 3.54024 14.0331 3.76223 13.4423 3.88487C12.9111 3.29806 12.2387 3 11.4326 3C10.6446 3 9.97898 3.28409 9.43576 3.83675C8.89557 4.39328 8.62283 5.06936 8.62283 5.85875C8.62283 6.0986 8.6523 6.31283 8.71123 6.49446C6.38727 6.41296 4.46373 5.42253 2.94817 3.51617C2.69129 3.98267 2.56286 4.45771 2.56286 4.94904C2.56286 5.95888 2.97763 6.75915 3.80568 7.34673C3.33348 7.3056 2.91719 7.18296 2.56286 6.98192C2.56286 7.70301 2.76911 8.30535 3.18238 8.83549C3.59716 9.3602 4.12979 9.69475 4.78029 9.83757C4.54457 9.89966 4.29601 9.92916 4.04064 9.92916C3.80492 9.92916 3.63795 9.90898 3.53898 9.86474C3.71275 10.4523 4.04064 10.9289 4.51435 11.2937C4.98655 11.6601 5.52976 11.8534 6.14021 11.8704C5.13387 12.6816 3.98322 13.0829 2.68147 13.0829C2.36265 13.0829 2.13675 13.0782 2 13.0534C3.28211 13.9088 4.70927 14.3333 6.2883 14.3333C7.90434 14.3333 9.33226 13.9126 10.5751 13.0712C11.8179 12.2345 12.7351 11.2021 13.3244 9.9866C13.9167 8.77262 14.2099 7.50896 14.2099 6.18942V5.82615C14.7825 5.38372 15.2457 4.8854 15.6 4.33507C15.0863 4.5625 14.5551 4.71696 14.0059 4.79536Z" fill="currentColor"/>
    <path d="M14.0059 4.79536C14.6163 4.41036 15.0205 3.88487 15.2185 3.21656C14.6246 3.54024 14.0331 3.76223 13.4423 3.88487C12.9111 3.29806 12.2387 3 11.4326 3C10.6446 3 9.97898 3.28409 9.43576 3.83675C8.89557 4.39328 8.62283 5.06936 8.62283 5.85875C8.62283 6.0986 8.6523 6.31283 8.71123 6.49446C6.38727 6.41296 4.46373 5.42253 2.94817 3.51617C2.69129 3.98267 2.56286 4.45771 2.56286 4.94904C2.56286 5.95888 2.97763 6.75915 3.80568 7.34673C3.33348 7.3056 2.91719 7.18296 2.56286 6.98192C2.56286 7.70301 2.76911 8.30535 3.18238 8.83549C3.59716 9.3602 4.12979 9.69475 4.78029 9.83757C4.54457 9.89966 4.29601 9.92916 4.04064 9.92916C3.80492 9.92916 3.63795 9.90898 3.53898 9.86474C3.71275 10.4523 4.04064 10.9289 4.51435 11.2937C4.98655 11.6601 5.52976 11.8534 6.14021 11.8704C5.13387 12.6816 3.98322 13.0829 2.68147 13.0829C2.36265 13.0829 2.13675 13.0782 2 13.0534C3.28211 13.9088 4.70927 14.3333 6.2883 14.3333C7.90434 14.3333 9.33226 13.9126 10.5751 13.0712C11.8179 12.2345 12.7351 11.2021 13.3244 9.9866C13.9167 8.77262 14.2099 7.50896 14.2099 6.18942V5.82615C14.7825 5.38372 15.2457 4.8854 15.6 4.33507C15.0863 4.5625 14.5551 4.71696 14.0059 4.79536Z" fill="currentColor"/>
  </symbol>
  <symbol id="youtube" viewBox="0 0 17 14" fill="none" xmlns="http://www.w3.org/2000/svg">
    <path fill-rule="evenodd" clip-rule="evenodd" d="M13.3471 3.18801C14.5118 3.23107 15.0786 4.43559 15.1581 5.39077C15.3205 7.39709 15.3205 8.66349 15.159 10.6707C15.0813 11.6259 14.3628 12.8465 13.3489 13.0232C10.117 13.2744 6.28254 13.243 2.93192 13.0232C1.88585 12.8905 1.19947 11.6259 1.12182 10.6707C0.959392 8.66439 0.959392 7.52263 1.12182 5.51631C1.19858 4.56114 1.90279 3.30371 2.93012 3.18801C6.24148 2.90819 10.0946 2.96827 13.3471 3.18801ZM6.35393 5.49478V10.6384L10.8167 8.06704L6.35393 5.49478Z" fill="currentColor"/>
    <path fill-rule="evenodd" clip-rule="evenodd" d="M13.3471 3.18801C14.5118 3.23107 15.0786 4.43559 15.1581 5.39077C15.3205 7.39709 15.3205 8.66349 15.159 10.6707C15.0813 11.6259 14.3628 12.8465 13.3489 13.0232C10.117 13.2744 6.28254 13.243 2.93192 13.0232C1.88585 12.8905 1.19947 11.6259 1.12182 10.6707C0.959392 8.66439 0.959392 7.52263 1.12182 5.51631C1.19858 4.56114 1.90279 3.30371 2.93012 3.18801C6.24148 2.90819 10.0946 2.96827 13.3471 3.18801ZM6.35393 5.49478V10.6384L10.8167 8.06704L6.35393 5.49478Z" fill="currentColor"/>
  </symbol>
  <symbol id="close" viewBox="0 0 18 18" fill="none" xmlns="http://www.w3.org/2000/svg">
    <path fill-rule="evenodd" clip-rule="evenodd" d="M9.02929 7.52444L15.7968 0.756955C16.0119 0.572742 16.2889 0.47689 16.5719 0.487821C16.8549 0.498752 17.1234 0.616068 17.3236 0.816325C17.5239 1.01658 17.6412 1.28503 17.6521 1.56803C17.6631 1.85102 17.5668 2.12772 17.3826 2.34283L17.3735 2.35341L10.6154 9.11075L17.383 15.8783C17.5672 16.0934 17.6631 16.3705 17.6521 16.6535C17.6412 16.9365 17.5239 17.2049 17.3236 17.4052C17.1234 17.6054 16.8549 17.7227 16.5719 17.7337C16.2889 17.7446 16.0122 17.6484 15.7971 17.4641L15.7865 17.4551L9.02912 10.6969L2.2667 17.45C2.16676 17.5652 2.04443 17.6589 1.90712 17.7253C1.76762 17.7928 1.61567 17.8307 1.46081 17.8367C1.30596 17.8427 1.15153 17.8166 1.00724 17.7601C0.862946 17.7035 0.731895 17.6178 0.622311 17.5082C0.512729 17.3986 0.426981 17.2676 0.37045 17.1233C0.313919 16.979 0.287825 16.8246 0.293807 16.6697C0.299788 16.5148 0.337717 16.3629 0.405209 16.2234C0.471658 16.086 0.565353 15.9637 0.680567 15.8637L7.44298 9.11058L0.675419 2.33373C0.491206 2.11862 0.395347 1.84158 0.406278 1.55858C0.417209 1.27559 0.534526 1.00714 0.734783 0.806882C0.93504 0.606625 1.20349 0.489309 1.48648 0.478378C1.76948 0.467447 2.04618 0.563706 2.26129 0.74792L2.27196 0.757058L9.02929 7.52444Z" fill="white"/>
  </symbol>
</svg>
